<?xml version="1.0" encoding="UTF-8" standalone="no"?>
<!-- Created with Inkscape (http://www.inkscape.org/) -->

<svg
   xmlns:dc="http://purl.org/dc/elements/1.1/"
   xmlns:cc="http://creativecommons.org/ns#"
   xmlns:rdf="http://www.w3.org/1999/02/22-rdf-syntax-ns#"
   xmlns:svg="http://www.w3.org/2000/svg"
   xmlns="http://www.w3.org/2000/svg"
   xmlns:sodipodi="http://sodipodi.sourceforge.net/DTD/sodipodi-0.dtd"
   xmlns:inkscape="http://www.inkscape.org/namespaces/inkscape"
   width="744.09448819"
   height="1052.3622047"
   id="svg2"
   version="1.1"
   inkscape:version="0.48.3.1 r9886"
   sodipodi:docname="eyes.svg">
  <defs
     id="defs4" />
  <sodipodi:namedview
     id="base"
     pagecolor="#ffffff"
     bordercolor="#666666"
     borderopacity="1.0"
     inkscape:pageopacity="0.0"
     inkscape:pageshadow="2"
     inkscape:zoom="1.0253906"
     inkscape:cx="58.170152"
     inkscape:cy="747.83365"
     inkscape:document-units="px"
     inkscape:current-layer="layer1"
     showgrid="false"
     inkscape:window-width="1280"
     inkscape:window-height="946"
     inkscape:window-x="0"
     inkscape:window-y="31"
     inkscape:window-maximized="1" />
  <metadata
     id="metadata7">
    <rdf:RDF>
      <cc:Work
         rdf:about="">
        <dc:format>image/svg+xml</dc:format>
        <dc:type
           rdf:resource="http://purl.org/dc/dcmitype/StillImage" />
        <dc:title></dc:title>
      </cc:Work>
    </rdf:RDF>
  </metadata>
  <g
     inkscape:label="Layer 1"
     inkscape:groupmode="layer"
     id="layer1">
    <path
       style="color:#000000;fill:#cccccc;stroke:#000000;stroke-width:1;stroke-opacity:1;marker:none;visibility:visible;display:inline;overflow:visible;enable-background:accumulate"
       d="M 171.71875 293.71875 C 162.00697 293.71875 154.125 301.2974 154.125 310.65625 C 154.125 317.19592 157.96418 322.86227 163.59375 325.6875 C 173.46526 322.55003 180.23379 316.33547 189.28125 310.46875 C 189.25635 308.25619 188.79335 306.15042 187.96875 304.21875 C 182.39038 300.49147 177.93303 296.80598 173.25 293.78125 C 172.73966 293.73833 172.24065 293.71875 171.71875 293.71875 z "
       id="path2985"
       inkscape:export-filename="/home/icosaeder/Лекция 9/path3954-9.png"
       inkscape:export-xdpi="299.94907"
       inkscape:export-ydpi="299.94907" />
    <path
       sodipodi:type="arc"
       style="color:#000000;fill:#000000;stroke:#000000;stroke-width:0.80381936;stroke-linecap:butt;stroke-linejoin:miter;stroke-miterlimit:4;stroke-opacity:1;stroke-dasharray:none;stroke-dashoffset:0;marker:none;visibility:visible;display:inline;overflow:visible;enable-background:accumulate"
       id="path3766"
       sodipodi:cx="99.129639"
       sodipodi:cy="351.21396"
       sodipodi:rx="4.6547828"
       sodipodi:ry="4.6547828"
       d="m 103.78442,351.21396 a 4.6547828,4.6547828 0 1 1 -9.309564,0 4.6547828,4.6547828 0 1 1 9.309564,0 z"
       transform="matrix(1.2439024,0,0,1.2442188,48.616621,-126.33748)"
       inkscape:export-filename="/home/icosaeder/Лекция 9/path3954-9.png"
       inkscape:export-xdpi="299.94907"
       inkscape:export-ydpi="299.94907" />
    <path
       style="color:#000000;fill:#cccccc;stroke:#000000;stroke-width:1;stroke-opacity:1;marker:none;visibility:visible;display:inline;overflow:visible;enable-background:accumulate"
       d="M 242.9375 293.71875 C 242.42459 293.71875 241.90801 293.73978 241.40625 293.78125 C 236.71402 296.81192 232.25001 300.5153 226.65625 304.25 C 225.83871 306.17449 225.36849 308.26628 225.34375 310.46875 C 234.39766 316.33789 241.15508 322.54855 251.03125 325.6875 C 256.66334 322.86306 260.5 317.19771 260.5 310.65625 C 260.5 301.2974 252.64928 293.71875 242.9375 293.71875 z "
       id="path2985-0"
       inkscape:export-filename="/home/icosaeder/Лекция 9/path3954-9.png"
       inkscape:export-xdpi="299.94907"
       inkscape:export-ydpi="299.94907" />
    <path
       sodipodi:type="arc"
       style="color:#000000;fill:#000000;stroke:#000000;stroke-width:0.80381936;stroke-linecap:butt;stroke-linejoin:miter;stroke-miterlimit:4;stroke-opacity:1;stroke-dasharray:none;stroke-dashoffset:0;marker:none;visibility:visible;display:inline;overflow:visible;enable-background:accumulate"
       id="path3766-8"
       sodipodi:cx="99.129639"
       sodipodi:cy="351.21396"
       sodipodi:rx="4.6547828"
       sodipodi:ry="4.6547828"
       d="m 103.78442,351.21396 a 4.6547828,4.6547828 0 1 1 -9.309564,0 4.6547828,4.6547828 0 1 1 9.309564,0 z"
       transform="matrix(-1.2439024,0,0,1.2442188,366.01906,-126.33748)"
       inkscape:export-filename="/home/icosaeder/Лекция 9/path3954-9.png"
       inkscape:export-xdpi="299.94907"
       inkscape:export-ydpi="299.94907" />
    <path
       style="fill:none;stroke:#000000;stroke-width:3;stroke-linecap:butt;stroke-linejoin:miter;stroke-opacity:1;stroke-miterlimit:4;stroke-dasharray:none"
       d="m 203.44858,338.0892 c -1.17835,15.85872 -10.74851,23.24289 -16.42402,31.84651 -18.90987,28.66587 3.60339,35.79164 29.52637,23.66609"
       id="path3792"
       inkscape:connector-curvature="0"
       sodipodi:nodetypes="csc"
       inkscape:export-filename="/home/icosaeder/Лекция 9/path3954-9.png"
       inkscape:export-xdpi="299.94907"
       inkscape:export-ydpi="299.94907" />
    <path
       style="color:#000000;fill:#cccccc;stroke:#000000;stroke-width:1;stroke-opacity:1;marker:none;visibility:visible;display:inline;overflow:visible;enable-background:accumulate"
       d="M 129 96.71875 C 117.97526 101.40891 110.62626 109.83032 104.59375 113.1875 C 104.60444 113.38712 104.6072 113.58351 104.625 113.78125 C 110.93817 118.19479 116.66793 124.56202 124.53125 129.0625 C 133.10868 127.9355 139.71875 120.88755 139.71875 112.3125 C 139.71875 105.30773 135.2908 99.300069 129 96.71875 z "
       id="path2985-08"
       inkscape:export-filename="/home/icosaeder/Лекция 9/path3954.png"
       inkscape:export-xdpi="300"
       inkscape:export-ydpi="300" />
    <path
       sodipodi:type="arc"
       style="color:#000000;fill:#000000;stroke:#000000;stroke-width:0.80381936;stroke-linecap:butt;stroke-linejoin:miter;stroke-miterlimit:4;stroke-opacity:1;stroke-dasharray:none;stroke-dashoffset:0;marker:none;visibility:visible;display:inline;overflow:visible;enable-background:accumulate"
       id="path3766-6"
       sodipodi:cx="99.129639"
       sodipodi:cy="351.21396"
       sodipodi:rx="4.6547828"
       sodipodi:ry="4.6547828"
       d="m 103.78442,351.21396 a 4.6547828,4.6547828 0 1 1 -9.309564,0 4.6547828,4.6547828 0 1 1 9.309564,0 z"
       transform="matrix(1.2439024,0,0,1.2442188,-0.959563,-324.68865)"
       inkscape:export-filename="/home/icosaeder/Лекция 9/path3954.png"
       inkscape:export-xdpi="300"
       inkscape:export-ydpi="300" />
    <path
       style="color:#000000;fill:#cccccc;stroke:#000000;stroke-width:1;stroke-opacity:1;marker:none;visibility:visible;display:inline;overflow:visible;enable-background:accumulate"
       d="M 276.46875 96.6875 C 270.17137 99.26601 265.75 105.30314 265.75 112.3125 C 265.75 120.87731 272.37501 127.92264 280.9375 129.0625 C 288.80082 124.56202 294.53058 118.19479 300.84375 113.78125 C 300.86154 113.58365 300.86431 113.38698 300.875 113.1875 C 294.83799 109.82489 287.50702 101.37342 276.46875 96.6875 z "
       id="path2985-0-1"
       inkscape:export-filename="/home/icosaeder/Лекция 9/path3954.png"
       inkscape:export-xdpi="300"
       inkscape:export-ydpi="300" />
    <path
       sodipodi:type="arc"
       style="color:#000000;fill:#000000;stroke:#000000;stroke-width:0.80381936;stroke-linecap:butt;stroke-linejoin:miter;stroke-miterlimit:4;stroke-opacity:1;stroke-dasharray:none;stroke-dashoffset:0;marker:none;visibility:visible;display:inline;overflow:visible;enable-background:accumulate"
       id="path3766-8-0"
       sodipodi:cx="99.129639"
       sodipodi:cy="351.21396"
       sodipodi:rx="4.6547828"
       sodipodi:ry="4.6547828"
       d="m 103.78442,351.21396 a 4.6547828,4.6547828 0 1 1 -9.309564,0 4.6547828,4.6547828 0 1 1 9.309564,0 z"
       transform="matrix(-1.2439024,0,0,1.2442188,406.44288,-324.68865)"
       inkscape:export-filename="/home/icosaeder/Лекция 9/path3954.png"
       inkscape:export-xdpi="300"
       inkscape:export-ydpi="300" />
    <path
       style="fill:none;stroke:#000000;stroke-width:3;stroke-linecap:butt;stroke-linejoin:miter;stroke-opacity:1;stroke-miterlimit:4;stroke-dasharray:none"
       d="m 198.8724,144.73803 c -1.17835,15.85872 -10.74851,23.24289 -16.42402,31.84651 -18.90987,28.66587 3.60339,35.79164 29.52637,23.66609"
       id="path3792-5"
       inkscape:connector-curvature="0"
       sodipodi:nodetypes="csc"
       inkscape:export-filename="/home/icosaeder/Лекция 9/path3954.png"
       inkscape:export-xdpi="300"
       inkscape:export-ydpi="300" />
    <path
       style="color:#000000;fill:none;stroke:#000000;stroke-width:2;stroke-opacity:1;marker:none;visibility:visible;display:inline;overflow:visible;enable-background:accumulate;stroke-miterlimit:4;stroke-dasharray:none"
       d="m 193.66423,307.76789 c -15.4931,8.87269 -23.2679,19.99238 -44.18405,19.99238 -20.91614,0 -29.83858,-13.55778 -40.74114,-20.96762 8.60729,-4.48412 19.825,-19.99238 40.74114,-19.99238 20.91615,0 26.96949,11.11969 44.18405,20.96762 z"
       id="path2985-05"
       inkscape:connector-curvature="0"
       sodipodi:nodetypes="cscsc"
       inkscape:export-filename="/home/icosaeder/Лекция 9/path3954-9.png"
       inkscape:export-xdpi="299.94907"
       inkscape:export-ydpi="299.94907" />
    <path
       style="color:#000000;fill:none;stroke:#000000;stroke-width:2;stroke-opacity:1;marker:none;visibility:visible;display:inline;overflow:visible;enable-background:accumulate;stroke-miterlimit:4;stroke-dasharray:none"
       d="m 220.97145,307.76789 c 15.4931,8.87269 23.2679,19.99238 44.18405,19.99238 20.91614,0 29.83858,-13.55778 40.74114,-20.96762 -8.60729,-4.48412 -19.825,-19.99238 -40.74114,-19.99238 -20.91615,0 -26.96949,11.11969 -44.18405,20.96762 z"
       id="path2985-0-12"
       inkscape:connector-curvature="0"
       sodipodi:nodetypes="cscsc"
       inkscape:export-filename="/home/icosaeder/Лекция 9/path3954-9.png"
       inkscape:export-xdpi="299.94907"
       inkscape:export-ydpi="299.94907" />
    <path
       style="color:#000000;fill:none;stroke:#000000;stroke-width:1;stroke-opacity:1;marker:none;visibility:visible;display:inline;overflow:visible;enable-background:accumulate"
       d="m 506.30288,181.99727 c -15.4931,8.87269 -23.2679,19.99238 -44.18405,19.99238 -20.91614,0 -29.83858,-13.55778 -40.74114,-20.96762 8.60729,-4.48412 19.825,-19.99238 40.74114,-19.99238 20.91615,0 26.96949,11.11969 44.18405,20.96762 z"
       id="path2985-08-6"
       inkscape:connector-curvature="0"
       sodipodi:nodetypes="cscsc" />
    <path
       sodipodi:type="arc"
       style="color:#000000;fill:none;stroke:#000000;stroke-width:0.80381936;stroke-linecap:butt;stroke-linejoin:miter;stroke-miterlimit:4;stroke-opacity:1;stroke-dasharray:none;stroke-dashoffset:0;marker:none;visibility:visible;display:inline;overflow:visible;enable-background:accumulate"
       id="path3764-9-3"
       sodipodi:cx="99.646835"
       sodipodi:cy="351.55875"
       sodipodi:rx="14.136748"
       sodipodi:ry="13.61955"
       d="m 113.78358,351.55875 a 14.136748,13.61955 0 1 1 -28.273493,0 14.136748,13.61955 0 1 1 28.273493,0 z"
       transform="matrix(1.2439024,0,0,1.2442188,360.39748,-252.5371)" />
    <path
       sodipodi:type="arc"
       style="color:#000000;fill:#000000;stroke:#000000;stroke-width:0.80381936;stroke-linecap:butt;stroke-linejoin:miter;stroke-miterlimit:4;stroke-opacity:1;stroke-dasharray:none;stroke-dashoffset:0;marker:none;visibility:visible;display:inline;overflow:visible;enable-background:accumulate"
       id="path3766-6-1"
       sodipodi:cx="99.129639"
       sodipodi:cy="351.21396"
       sodipodi:rx="4.6547828"
       sodipodi:ry="4.6547828"
       d="m 103.78442,351.21396 a 4.6547828,4.6547828 0 1 1 -9.309564,0 4.6547828,4.6547828 0 1 1 9.309564,0 z"
       transform="matrix(1.2439024,0,0,1.2442188,361.25527,-252.1081)" />
    <path
       style="color:#000000;fill:none;stroke:#000000;stroke-width:1;stroke-opacity:1;marker:none;visibility:visible;display:inline;overflow:visible;enable-background:accumulate"
       d="m 533.6101,181.99727 c 15.4931,8.87269 23.2679,19.99238 44.18405,19.99238 20.91614,0 29.83858,-13.55778 40.74114,-20.96762 -8.60729,-4.48412 -19.825,-19.99238 -40.74114,-19.99238 -20.91615,0 -26.96949,11.11969 -44.18405,20.96762 z"
       id="path2985-0-1-1"
       inkscape:connector-curvature="0"
       sodipodi:nodetypes="cscsc" />
    <path
       sodipodi:type="arc"
       style="color:#000000;fill:none;stroke:#000000;stroke-width:0.80381936;stroke-linecap:butt;stroke-linejoin:miter;stroke-miterlimit:4;stroke-opacity:1;stroke-dasharray:none;stroke-dashoffset:0;marker:none;visibility:visible;display:inline;overflow:visible;enable-background:accumulate"
       id="path3764-0-3-1"
       sodipodi:cx="99.646835"
       sodipodi:cy="351.55875"
       sodipodi:rx="14.136748"
       sodipodi:ry="13.61955"
       d="m 113.78358,351.55875 a 14.136748,13.61955 0 1 1 -28.273493,0 14.136748,13.61955 0 1 1 28.273493,0 z"
       transform="matrix(-1.2439024,0,0,1.2442188,679.5155,-252.5371)" />
    <path
       sodipodi:type="arc"
       style="color:#000000;fill:#000000;stroke:#000000;stroke-width:0.80381936;stroke-linecap:butt;stroke-linejoin:miter;stroke-miterlimit:4;stroke-opacity:1;stroke-dasharray:none;stroke-dashoffset:0;marker:none;visibility:visible;display:inline;overflow:visible;enable-background:accumulate"
       id="path3766-8-0-3"
       sodipodi:cx="99.129639"
       sodipodi:cy="351.21396"
       sodipodi:rx="4.6547828"
       sodipodi:ry="4.6547828"
       d="m 103.78442,351.21396 a 4.6547828,4.6547828 0 1 1 -9.309564,0 4.6547828,4.6547828 0 1 1 9.309564,0 z"
       transform="matrix(-1.2439024,0,0,1.2442188,678.65771,-252.1081)" />
    <path
       style="fill:none;stroke:#000000;stroke-width:1px;stroke-linecap:butt;stroke-linejoin:miter;stroke-opacity:1"
       d="m 516.08723,212.31858 c -1.17835,15.85872 -10.74851,23.24289 -16.42402,31.84651 -18.90987,28.66587 3.60339,35.79164 29.52637,23.66609"
       id="path3792-5-8"
       inkscape:connector-curvature="0"
       sodipodi:nodetypes="csc" />
    <path
       style="color:#000000;fill:none;stroke:#000000;stroke-width:2;stroke-opacity:1;marker:none;visibility:visible;display:inline;overflow:visible;enable-background:accumulate;stroke-miterlimit:4;stroke-dasharray:none"
       d="m 189.08805,114.41672 c -15.4931,8.87269 -23.2679,19.99238 -44.18405,19.99238 -20.91614,0 -29.83858,-13.55778 -40.74114,-20.96762 8.60729,-4.48412 19.825,-19.99238 40.74114,-19.99238 20.91615,0 26.96949,11.11969 44.18405,20.96762 z"
       id="path2985-08-7"
       inkscape:connector-curvature="0"
       sodipodi:nodetypes="cscsc"
       inkscape:export-filename="/home/icosaeder/Лекция 9/path3954.png"
       inkscape:export-xdpi="300"
       inkscape:export-ydpi="300" />
    <path
       style="color:#000000;fill:none;stroke:#000000;stroke-width:2;stroke-opacity:1;marker:none;visibility:visible;display:inline;overflow:visible;enable-background:accumulate;stroke-miterlimit:4;stroke-dasharray:none"
       d="m 216.39527,114.41672 c 15.4931,8.87269 23.2679,19.99238 44.18405,19.99238 20.91614,0 29.83858,-13.55778 40.74114,-20.96762 -8.60729,-4.48412 -19.825,-19.99238 -40.74114,-19.99238 -20.91615,0 -26.96949,11.11969 -44.18405,20.96762 z"
       id="path2985-0-1-7"
       inkscape:connector-curvature="0"
       sodipodi:nodetypes="cscsc"
       inkscape:export-filename="/home/icosaeder/Лекция 9/path3954.png"
       inkscape:export-xdpi="300"
       inkscape:export-ydpi="300" />
    <path
       style="fill:none;stroke:#000000;stroke-width:3;stroke-linecap:butt;stroke-linejoin:miter;stroke-opacity:1;stroke-miterlimit:4;stroke-dasharray:none"
       d="m 156.40001,235.14904 c 6.40518,-3.1651 9.73582,-4.72147 26.5771,3.79278 16.84127,8.51425 7.97108,-3.48653 35.8213,-7.58557 10.33349,-1.03217 17.36569,14.37844 26.8082,2.41359"
       id="path3954"
       inkscape:connector-curvature="0"
       sodipodi:nodetypes="czcc"
       inkscape:export-xdpi="300"
       inkscape:export-ydpi="300" />
    <path
       style="fill:none;stroke:#000000;stroke-width:3;stroke-linecap:butt;stroke-linejoin:miter;stroke-opacity:1;stroke-miterlimit:4;stroke-dasharray:none"
       d="m 156.40001,425.14904 c 6.40518,-3.1651 9.73582,-4.72147 26.5771,3.79278 16.84127,8.51424 7.97108,-3.48653 35.8213,-7.58557 10.33349,-1.03217 17.36569,14.37843 26.8082,2.41359"
       id="path3954-9"
       inkscape:connector-curvature="0"
       sodipodi:nodetypes="czcc"
       inkscape:export-xdpi="299.94907"
       inkscape:export-ydpi="299.94907" />
  </g>
</svg>
